<svg width="32" height="19" viewBox="0 0 32 19" fill="none" xmlns="http://www.w3.org/2000/svg">
<path d="M6.00024 6.27376V4.84122C6.00024 4.84122 7.74209 4.84122 8.44208 4.84122C9.14207 4.84122 11.6979 5.13424 12.349 7.90165C12.5118 8.71559 12.1862 10.6039 12.1862 10.6039C12.1862 10.6039 12.349 7.90165 9.74439 6.59934C8.44208 5.94818 6.00024 6.27376 6.00024 6.27376Z" fill="#0B1E2C"/>
<path d="M6.00024 7.00629V12.9481C6.00024 12.9481 8.18162 12.9481 8.963 12.9481C9.74439 12.9481 12.0234 12.1341 11.0467 8.2272C10.8839 9.04115 10.7211 11.3202 9.09323 11.3202C7.46534 11.3202 7.62813 11.3202 7.62813 11.3202V7.00629H6.00024Z" fill="#0B1E2C"/>
<path d="M13.2932 12.9481H14.9537V8.89462C14.9537 8.89462 14.4979 10.2295 13.2932 10.6853C13.2932 11.2876 13.2932 12.9481 13.2932 12.9481Z" fill="#0B1E2C"/>
<path d="M13.2932 9.82254V4.79236H14.9537V8.16209C14.9537 8.16209 14.042 9.87137 13.2932 9.82254Z" fill="#0B1E2C"/>
<path d="M25.3395 12.9481H27V8.89462C27 8.89462 26.5442 10.2295 25.3395 10.6853C25.3395 11.2876 25.3395 12.9481 25.3395 12.9481Z" fill="#0B1E2C"/>
<path d="M25.3395 9.82254V4.79236H27V8.16209C27 8.16209 26.0884 9.87137 25.3395 9.82254Z" fill="#0B1E2C"/>
<path d="M21.8722 7.08767L23.0117 5.94815C23.0117 5.94815 22.1978 4.80862 19.7559 4.80862C17.3141 4.80862 16.0118 7.25046 16.0118 8.87835C16.8257 7.73882 18.6164 5.1342 21.8722 7.08767Z" fill="#0B1E2C"/>
<path d="M24.314 8.71561C24.314 8.71561 24.4768 13.1109 20.0815 13.1109C16.5002 13.1109 17.0699 9.36676 17.0699 9.36676C17.0699 9.36676 17.9653 11.483 20.2443 11.483C21.5466 11.483 22.035 10.3435 22.035 10.3435H19.5118V8.71561H24.314Z" fill="#0B1E2C"/>
<path fill-rule="evenodd" clip-rule="evenodd" d="M30.8571 1.14286H1.14286V17.1429H30.8571V1.14286ZM0 0V18.2857H32V0H0Z" fill="#0B1E2C"/>
</svg>
