<svg width="121" height="34" viewBox="0 0 121 34" fill="none" xmlns="http://www.w3.org/2000/svg">
<path d="M37.3225 17.4313L28.8476 32.1099C28.5197 32.6777 27.9148 33.0272 27.259 33.0272L18.7842 33.0291C17.3716 33.0297 16.489 31.5006 17.195 30.2771L25.6704 15.5978C26.3764 14.3749 28.141 14.3749 28.8476 15.5972C29.1755 16.165 29.1755 16.8647 28.8476 17.4325L23.5506 26.6071C22.8446 27.83 23.7266 29.3585 25.1386 29.3591C25.7944 29.3591 26.3999 29.0095 26.7278 28.4418L33.0866 17.43C33.4145 16.8623 33.4145 16.1631 33.0866 15.5953L28.8495 8.25727C28.1435 7.03436 26.3782 7.03436 25.6723 8.25727L11.8998 32.1118C11.5725 32.6789 10.967 33.0285 10.3118 33.0291H10.3112C9.65544 33.0297 9.04925 32.6795 8.72136 32.1118L0.245915 17.4313C-0.0819715 16.8635 -0.0819715 16.1643 0.245915 15.5966L8.72075 0.918577C9.04863 0.350819 9.6542 0.00123964 10.31 0.00123964C11.7219 0.00185947 12.6039 1.53034 11.898 2.75325L4.48426 15.5953C4.15699 16.1625 4.15637 16.8616 4.48364 17.4288C5.18962 18.6523 6.95549 18.6529 7.66147 17.4294L17.1943 0.917337C17.5222 0.34958 18.1278 0 18.7836 0C20.1955 0.000619822 21.0775 1.5291 20.3715 2.75201L8.72075 22.9334C8.39286 23.5012 8.39286 24.201 8.72075 24.7687C9.42734 25.991 11.192 25.991 11.898 24.7681L25.6686 0.917337C25.9964 0.34958 26.6026 0 27.2584 0H27.2621C27.9173 0 28.5228 0.3502 28.8501 0.917337L37.3225 15.5966C37.6503 16.1643 37.6503 16.8641 37.3225 17.4313Z" fill="url(#paint0_linear)"/>
<path d="M102.704 30.6465L104.452 28.4188H102.776V27.7383H105.785V28.2967L104.037 30.5244H105.828V31.2049H102.705V30.6465H102.704Z" fill="#180835"/>
<path d="M107.674 31.1839C107.536 31.1696 107.388 31.1411 107.231 31.0977C107.058 31.05 106.92 30.9818 106.815 30.8938C106.711 30.8058 106.622 30.6799 106.55 30.5182C106.479 30.3601 106.443 30.1692 106.443 29.9454V28.9209C106.443 28.6915 106.479 28.4913 106.55 28.319C106.622 28.1473 106.715 28.0135 106.83 27.918C106.931 27.8368 107.063 27.7686 107.228 27.7135C107.392 27.6589 107.554 27.6242 107.711 27.61C107.893 27.6007 108.057 27.5957 108.206 27.5957C108.424 27.5957 108.6 27.6013 108.732 27.6137C108.863 27.6255 109.007 27.6552 109.166 27.7029C109.337 27.7556 109.477 27.8269 109.584 27.918C109.692 28.0085 109.784 28.1374 109.861 28.3048C109.932 28.4771 109.968 28.6823 109.968 28.9209V29.9454C109.968 30.1599 109.933 30.349 109.864 30.5113C109.795 30.6737 109.705 30.8002 109.595 30.8907C109.5 30.9719 109.37 31.0376 109.205 31.0878C109.04 31.138 108.879 31.1702 108.721 31.1845C108.579 31.1987 108.406 31.2062 108.206 31.2062C107.989 31.2055 107.813 31.1981 107.674 31.1839ZM108.649 30.5064C108.749 30.4754 108.819 30.4264 108.86 30.3595C108.9 30.2925 108.92 30.1952 108.92 30.0663V28.7554C108.92 28.5645 108.871 28.4306 108.77 28.3544C108.67 28.2781 108.481 28.2397 108.204 28.2397C107.927 28.2397 107.738 28.2781 107.638 28.3544C107.537 28.4312 107.488 28.5645 107.488 28.7554V30.0663C107.488 30.1952 107.508 30.2932 107.549 30.3595C107.589 30.4264 107.66 30.4754 107.759 30.5064C107.86 30.5374 108.008 30.5529 108.204 30.5529C108.4 30.5535 108.548 30.538 108.649 30.5064Z" fill="#180835"/>
<path d="M110.783 27.7388H111.814V28.1615C111.895 27.8317 112.265 27.6675 112.925 27.6675C113.369 27.6675 113.681 27.7474 113.859 27.9074C114.039 28.0673 114.128 28.3189 114.128 28.6629V31.2054H113.082V28.7987C113.082 28.6648 113.069 28.5644 113.043 28.498C113.016 28.4311 112.963 28.3834 112.885 28.3549C112.806 28.3257 112.686 28.3115 112.523 28.3115C112.318 28.3115 112.168 28.3245 112.072 28.3511C111.977 28.3778 111.912 28.4243 111.879 28.4906C111.846 28.5575 111.829 28.6604 111.829 28.7987V31.2054H110.783V27.7388Z" fill="#180835"/>
<path d="M114.945 30.0806V28.8341C114.945 28.3996 115.084 28.0847 115.364 27.8889C115.643 27.693 116.073 27.5957 116.656 27.5957C117.206 27.5957 117.608 27.6899 117.863 27.8783C118.119 28.0668 118.246 28.386 118.246 28.8347V29.6802H115.997V29.995C115.997 30.1959 116.069 30.339 116.212 30.4246C116.355 30.5107 116.613 30.5535 116.985 30.5535C117.328 30.5535 117.716 30.5033 118.145 30.4035V31.0698C117.72 31.1603 117.266 31.2062 116.784 31.2062C115.558 31.2055 114.945 30.8299 114.945 30.0806ZM117.251 29.0851V28.5837C117.251 28.469 117.204 28.3829 117.111 28.3259C117.018 28.2688 116.861 28.2397 116.642 28.2397C116.388 28.2397 116.219 28.2688 116.133 28.3259C116.042 28.3878 115.997 28.474 115.997 28.5837V29.0851H117.251Z" fill="#180835"/>
<path d="M45.4509 2.66406H47.686L49.424 9.20257L51.162 2.66406H53.1628L55.039 9.20257L56.6387 2.66406H58.8186L55.9495 11.6168H53.8253L52.1146 5.11918L50.3481 11.6168H48.224L45.4509 2.66406Z" fill="#180835"/>
<path d="M59.6177 9.45082V7.05087C59.6177 6.21411 59.8867 5.6073 60.4247 5.22983C60.9627 4.85298 61.792 4.66455 62.9145 4.66455C63.9719 4.66455 64.7473 4.84616 65.2388 5.20937C65.731 5.57259 65.9771 6.18683 65.9771 7.05087V8.67852H61.6457V9.28533C61.6457 9.67148 61.784 9.9473 62.0598 10.1128C62.3356 10.2783 62.8327 10.3613 63.5498 10.3613C64.2118 10.3613 64.9568 10.2646 65.7843 10.0719V11.3549C64.9655 11.5297 64.0922 11.6171 63.1637 11.6171C60.7991 11.6165 59.6177 10.895 59.6177 9.45082ZM64.0599 7.53309V6.56741C64.0599 6.34675 63.9707 6.18126 63.7909 6.07093C63.6112 5.9606 63.3106 5.90543 62.8872 5.90543C62.4001 5.90543 62.0734 5.9606 61.9079 6.07093C61.7331 6.19055 61.6457 6.35605 61.6457 6.56741V7.53309H64.0599Z" fill="#180835"/>
<path d="M68.8943 11.3545C68.4021 11.1797 68.0507 10.9107 67.8393 10.5475C67.6273 10.1843 67.522 9.70393 67.522 9.1058V1.82227H69.5358V5.46434C69.6548 5.16063 69.8761 4.95175 70.1977 4.83646C70.5194 4.72179 71.0209 4.66415 71.7014 4.66415C72.281 4.66415 72.7477 4.71002 73.1016 4.80237C73.4555 4.89411 73.7245 5.04162 73.9086 5.24368C74.0834 5.44637 74.203 5.66888 74.2675 5.91247C74.332 6.15668 74.3642 6.49015 74.3642 6.91287V9.10642C74.3642 10.0076 74.0927 10.6516 73.5504 11.0378C73.0074 11.4239 72.1248 11.6173 70.9019 11.6173C70.0558 11.6167 69.3864 11.5293 68.8943 11.3545ZM71.826 10.2785C72.0281 10.2233 72.1663 10.1266 72.2401 9.98904C72.3138 9.85082 72.3504 9.64442 72.3504 9.36798V6.89861C72.3504 6.5949 72.3182 6.37672 72.2537 6.24346C72.1892 6.1102 72.0603 6.02032 71.8675 5.97446C71.6742 5.92859 71.3568 5.90565 70.9155 5.90565C70.538 5.90565 70.2511 5.93789 70.0533 6.00235C69.8556 6.06681 69.7199 6.16784 69.6467 6.30606C69.573 6.44428 69.5364 6.642 69.5364 6.89923V9.3686C69.5364 9.64442 69.5711 9.85144 69.6399 9.98966C69.7093 10.1279 69.842 10.224 70.0397 10.2791C70.2374 10.3343 70.5343 10.3622 70.9298 10.3622C71.3246 10.3616 71.6233 10.3337 71.826 10.2785Z" fill="#180835"/>
<path d="M75.7987 11.4097V10.0721C77.0768 10.2649 77.9644 10.3616 78.4609 10.3616C78.8842 10.3616 79.1966 10.3201 79.3993 10.237C79.6013 10.154 79.703 10.0027 79.703 9.78207V9.36803C79.703 9.13869 79.6385 8.97506 79.5096 8.87837C79.3807 8.78167 79.1278 8.73333 78.7509 8.73333H77.882C77.1741 8.73333 76.6268 8.59325 76.2407 8.31247C75.8539 8.03231 75.6611 7.62075 75.6611 7.07778V6.26396C75.6611 5.68442 75.937 5.27286 76.4886 5.02927C77.0402 4.78568 77.8727 4.66357 78.9859 4.66357C79.4272 4.66357 80.2181 4.7051 81.3585 4.78754V6.07057C79.9237 5.96024 79.1148 5.90508 78.9307 5.90508C78.3877 5.90508 78.0338 5.94165 77.8683 6.01541C77.7214 6.09846 77.6477 6.2497 77.6477 6.47098V6.82985C77.6477 6.94948 77.7078 7.05299 77.8274 7.13976C77.9464 7.22716 78.1218 7.27117 78.3512 7.27117H79.2338C80.8707 7.27117 81.6895 7.80483 81.6895 8.87093V9.71265C81.6895 10.0343 81.6294 10.3151 81.5098 10.5537C81.3902 10.793 81.234 10.9814 81.0406 11.119C80.8565 11.2479 80.6197 11.349 80.3303 11.4227C80.0408 11.4959 79.7396 11.5467 79.4272 11.5746C79.1421 11.6019 78.8104 11.6161 78.4336 11.6161C77.7158 11.6167 76.8382 11.5479 75.7987 11.4097Z" fill="#180835"/>
<path d="M83.2341 2.52686H85.2479V4.15451H83.2341V2.52686ZM83.2341 4.94044H85.2479V11.6172H83.2341V4.94044Z" fill="#180835"/>
<path d="M89.5519 11.5753C89.3213 11.5474 89.0914 11.4922 88.862 11.4098C88.6042 11.3267 88.3953 11.212 88.2348 11.0651C88.0736 10.9182 87.9428 10.7156 87.8412 10.4583C87.7308 10.1918 87.6763 9.88376 87.6763 9.53418V6.04396H86.3245V4.80246H87.6763V2.87109H89.6901V4.80246H91.5248V6.04396H89.6901V9.18894C89.6901 9.51125 89.7174 9.75236 89.7725 9.9129C89.8277 10.0734 89.9331 10.1887 90.0899 10.2575C90.2461 10.3263 90.4847 10.361 90.807 10.361C90.9353 10.361 91.1746 10.3381 91.5242 10.2922V11.5474C91.0915 11.5932 90.7196 11.6162 90.4066 11.6162C90.0663 11.6168 89.7812 11.6032 89.5519 11.5753Z" fill="#180835"/>
<path d="M92.49 9.45082V7.05087C92.49 6.21411 92.759 5.6073 93.297 5.22983C93.835 4.85298 94.6643 4.66455 95.7868 4.66455C96.8442 4.66455 97.6196 4.84616 98.1112 5.20937C98.6033 5.57259 98.8494 6.18683 98.8494 7.05087V8.67852H94.5181V9.28533C94.5181 9.67148 94.6563 9.9473 94.9321 10.1128C95.2079 10.2783 95.705 10.3613 96.4221 10.3613C97.0841 10.3613 97.8291 10.2646 98.6566 10.0719V11.3549C97.8378 11.5297 96.9645 11.6171 96.036 11.6171C93.6714 11.6165 92.49 10.895 92.49 9.45082ZM96.9323 7.53309V6.56741C96.9323 6.34675 96.843 6.18126 96.6633 6.07093C96.4835 5.9606 96.1829 5.90543 95.7595 5.90543C95.2724 5.90543 94.9457 5.9606 94.7802 6.07093C94.6054 6.19055 94.5181 6.35605 94.5181 6.56741V7.53309H96.9323Z" fill="#180835"/>
<path d="M45.4511 15.6548H49.8958C51.12 15.6548 52.0863 15.749 52.7947 15.9368C53.5032 16.1246 54.0238 16.45 54.3573 16.9112C54.6895 17.3729 54.8562 18.012 54.8562 18.8277V23.0796C54.8562 23.8742 54.7007 24.4885 54.3889 24.9236C54.0771 25.3581 53.5676 25.6643 52.8586 25.8416C52.1501 26.0188 51.1677 26.1075 49.9113 26.1075H45.4504V15.6548H45.4511ZM49.7991 24.3193C50.4859 24.3193 51.004 24.2901 51.353 24.2306C51.702 24.1718 51.9542 24.0559 52.1098 23.8842C52.2654 23.7125 52.3435 23.4441 52.3435 23.079V18.7787C52.3435 18.2853 52.147 17.9388 51.7553 17.7399C51.3629 17.5415 50.7381 17.4417 49.8791 17.4417H47.9626V24.3187H49.7991V24.3193Z" fill="#F85378"/>
<path d="M56.563 23.5781V20.7758C56.563 19.799 56.8772 19.0905 57.5051 18.6499C58.133 18.2098 59.1024 17.9897 60.4121 17.9897C61.6462 17.9897 62.5517 18.2017 63.1257 18.6257C63.6996 19.0496 63.9872 19.7662 63.9872 20.7758V22.6762H58.9307V23.3847C58.9307 23.8359 59.0912 24.1576 59.4136 24.351C59.7359 24.5444 60.3154 24.6404 61.1528 24.6404C61.9257 24.6404 62.7953 24.5276 63.7622 24.302V25.8001C62.8065 26.004 61.7869 26.1063 60.7022 26.1063C57.9427 26.1069 56.563 25.264 56.563 23.5781ZM61.749 21.3399V20.2124C61.749 19.9546 61.6443 19.7618 61.4348 19.6329C61.2253 19.504 60.8739 19.4395 60.3799 19.4395C59.8109 19.4395 59.4297 19.504 59.2363 19.6329C59.0317 19.7724 58.9301 19.9657 58.9301 20.2124V21.3399H61.749Z" fill="#F85378"/>
<path d="M64.761 18.312H67.257L68.964 23.7069L70.6065 18.312H72.9736L70.107 26.1069H67.7237L64.761 18.312Z" fill="#F85378"/>
<path d="M73.7795 23.5781V20.7758C73.7795 19.799 74.0938 19.0905 74.7217 18.6499C75.3495 18.2098 76.319 17.9897 77.6286 17.9897C78.8633 17.9897 79.7683 18.2017 80.3422 18.6257C80.9168 19.0496 81.2038 19.7662 81.2038 20.7758V22.6762H76.1473V23.3847C76.1473 23.8359 76.3078 24.1576 76.6301 24.351C76.9524 24.5444 77.5319 24.6404 78.3693 24.6404C79.1422 24.6404 80.0119 24.5276 80.9788 24.302V25.8001C80.023 26.004 79.0034 26.1063 77.9187 26.1063C75.1593 26.1069 73.7795 25.264 73.7795 23.5781ZM78.9656 21.3399V20.2124C78.9656 19.9546 78.8608 19.7618 78.6513 19.6329C78.4418 19.504 78.0904 19.4395 77.5964 19.4395C77.0274 19.4395 76.6462 19.504 76.4528 19.6329C76.2483 19.7724 76.1466 19.9657 76.1466 20.2124V21.3399H78.9656Z" fill="#F85378"/>
<path d="M83.0723 14.833H85.4233V26.107H83.0723V14.833Z" fill="#F85378"/>
<path d="M90.0938 26.0582C89.7821 26.026 89.4492 25.9615 89.0953 25.8655C88.7085 25.7582 88.3974 25.6051 88.1612 25.4062C87.9251 25.2078 87.7267 24.9258 87.565 24.5607C87.4044 24.2062 87.3232 23.7773 87.3232 23.2721V20.9689C87.3232 20.4538 87.4038 20.0026 87.565 19.6158C87.7261 19.2297 87.9356 18.929 88.1929 18.714C88.4185 18.5317 88.7166 18.3786 89.0866 18.2547C89.4573 18.1313 89.8199 18.0532 90.1738 18.021C90.5816 17.9999 90.9523 17.9888 91.2851 17.9888C91.7785 17.9888 92.1734 18.0024 92.469 18.0291C92.764 18.0557 93.0894 18.1233 93.4434 18.2305C93.8301 18.3489 94.1438 18.51 94.3855 18.714C94.6272 18.9179 94.8336 19.208 95.0053 19.5836C95.1665 19.9703 95.247 20.4321 95.247 20.9689V23.2721C95.247 23.7556 95.169 24.1796 95.0134 24.5446C94.8578 24.9097 94.6564 25.1942 94.4097 25.3981C94.1946 25.581 93.902 25.7285 93.532 25.8413C93.1613 25.9541 92.7988 26.0266 92.4448 26.0589C92.1225 26.0911 91.7364 26.1072 91.2851 26.1072C90.8029 26.1066 90.4056 26.0905 90.0938 26.0582ZM92.2843 24.5366C92.5099 24.4665 92.6686 24.3568 92.7597 24.2062C92.8508 24.0562 92.8967 23.8356 92.8967 23.5461V20.5988C92.8967 20.1699 92.7833 19.8687 92.5583 19.697C92.3333 19.5253 91.9081 19.4392 91.2858 19.4392C90.6635 19.4392 90.2389 19.5253 90.0133 19.697C89.7883 19.8687 89.6755 20.1693 89.6755 20.5988V23.5461C89.6755 23.8362 89.7213 24.0562 89.8124 24.2062C89.9036 24.3568 90.0622 24.4665 90.2872 24.5366C90.5128 24.6066 90.8451 24.6413 91.2858 24.6413C91.7265 24.6413 92.0587 24.6066 92.2843 24.5366Z" fill="#F85378"/>
<path d="M97.0836 18.1509H99.3057V18.9238C99.4451 18.5804 99.7191 18.3387 100.127 18.1992C100.535 18.0598 101.142 17.9897 101.947 17.9897C102.624 17.9897 103.168 18.0437 103.581 18.1509C103.995 18.2581 104.309 18.4304 104.523 18.666C104.727 18.9021 104.867 19.1631 104.942 19.4476C105.017 19.7321 105.055 20.1213 105.055 20.6147V23.1758C105.055 23.9487 104.942 24.545 104.717 24.9634C104.492 25.3824 104.145 25.678 103.678 25.8491C103.211 26.0208 102.575 26.1069 101.769 26.1069C100.997 26.1069 100.438 26.0425 100.095 25.9136C99.7507 25.7846 99.5313 25.5324 99.434 25.1567V31.2062H97.083V18.1509H97.0836ZM102.092 24.545C102.329 24.4805 102.49 24.3677 102.575 24.2066C102.661 24.0454 102.704 23.8037 102.704 23.482V20.5992C102.704 20.2447 102.666 19.9899 102.591 19.8343C102.516 19.6788 102.366 19.574 102.14 19.5201C101.915 19.4668 101.544 19.4395 101.029 19.4395C100.589 19.4395 100.253 19.4773 100.022 19.5523C99.7916 19.6279 99.6354 19.7457 99.5549 19.9069C99.4749 20.068 99.434 20.2992 99.434 20.5992V23.482C99.434 23.8043 99.4743 24.0454 99.5549 24.2066C99.6354 24.3677 99.7885 24.4805 100.014 24.545C100.239 24.6094 100.583 24.6417 101.045 24.6417C101.507 24.6411 101.856 24.6088 102.092 24.545Z" fill="#F85378"/>
<path d="M106.666 23.5781V20.7758C106.666 19.799 106.98 19.0905 107.608 18.6499C108.236 18.2098 109.205 17.9897 110.515 17.9897C111.75 17.9897 112.655 18.2017 113.229 18.6257C113.803 19.0496 114.09 19.7662 114.09 20.7758V22.6762H109.034V23.3847C109.034 23.8359 109.194 24.1576 109.517 24.351C109.839 24.5444 110.418 24.6404 111.256 24.6404C112.029 24.6404 112.898 24.5276 113.865 24.302V25.8001C112.909 26.004 111.89 26.1063 110.805 26.1063C108.045 26.1069 106.666 25.264 106.666 23.5781ZM111.852 21.3399V20.2124C111.852 19.9546 111.747 19.7618 111.538 19.6329C111.328 19.504 110.977 19.4395 110.483 19.4395C109.914 19.4395 109.533 19.504 109.339 19.6329C109.135 19.7724 109.033 19.9657 109.033 20.2124V21.3399H111.852Z" fill="#F85378"/>
<path d="M115.895 18.312H118.133V19.6806C118.133 19.4339 118.235 19.1922 118.439 18.956C118.643 18.7199 118.903 18.5271 119.22 18.3765C119.537 18.2265 119.851 18.1509 120.163 18.1509H121V20.0996H120.195C119.529 20.0996 119.038 20.2019 118.722 20.4058C118.404 20.6097 118.246 20.9481 118.246 21.4204V26.1069H115.895V18.312H115.895Z" fill="#F85378"/>
<defs>
<linearGradient id="paint0_linear" x1="6.88106" y1="3.9222" x2="29.1757" y2="32.0657" gradientUnits="userSpaceOnUse">
<stop stop-color="#C800FA"/>
<stop offset="1" stop-color="#FF7C1D"/>
</linearGradient>
</defs>
</svg>
