<svg width="87" height="45" viewBox="0 0 87 45" fill="none" xmlns="http://www.w3.org/2000/svg">
<path d="M0 39.3194C0.539535 39.2519 1.21395 39.1845 1.95581 39.1845C3.30465 39.1845 4.18139 39.3868 4.85581 39.8589C5.53023 40.2636 5.86744 40.8706 5.86744 41.7473C5.86744 42.624 5.53023 43.2985 4.85581 43.7706C4.18139 44.2427 3.10233 44.5124 1.68605 44.5124C1.01163 44.5124 0.472093 44.5124 0 44.445V39.3194ZM0.944182 43.838C1.14651 43.838 1.48372 43.838 1.88837 43.838C3.84419 43.838 4.92326 43.0287 4.92326 41.6124C4.92326 40.3985 3.97907 39.5892 2.02326 39.5892C1.55116 39.5892 1.21395 39.5892 0.944182 39.6566V43.838Z" fill="white"/>
<path d="M10.7232 41.9488H7.95811V43.8372H11.0604V44.3767H7.08136V39.1837H10.9255V39.7233H8.02554V41.3419H10.7907V41.9488H10.7232Z" fill="white"/>
<path d="M12.1395 43.5674C12.5442 43.7698 13.1511 43.9046 13.7581 43.9046C14.7023 43.9046 15.2418 43.5674 15.2418 43.0279C15.2418 42.5558 14.8372 42.286 13.893 42.0163C12.7465 41.6791 12.0046 41.2744 12.0046 40.5326C12.0046 39.7233 12.9488 39.1163 14.2977 39.1163C15.0395 39.1163 15.5791 39.2512 15.8488 39.386L15.5791 39.9256C15.3767 39.8581 14.9046 39.6558 14.2302 39.6558C13.286 39.6558 12.8814 40.0605 12.8814 40.4651C12.8814 40.9372 13.286 41.207 14.2977 41.4767C15.5116 41.8139 16.1186 42.2186 16.1186 43.0279C16.1186 43.8372 15.3093 44.5116 13.6232 44.5116C12.9488 44.5116 12.207 44.3767 11.8023 44.1744L12.1395 43.5674Z" fill="white"/>
<path d="M18.3441 39.1837V44.3767H17.4V39.1837H18.3441Z" fill="white"/>
<path d="M25.3582 44.1744C24.9535 44.3093 24.1442 44.4442 23.1326 44.4442C22.0535 44.4442 21.1768 44.2419 20.5024 43.7698C19.8954 43.3651 19.4907 42.6232 19.4907 41.8139C19.4907 40.2628 20.9745 39.1163 23.3349 39.1163C24.1442 39.1163 24.8186 39.2512 25.0884 39.386L24.8861 39.9256C24.4814 39.7907 24.0093 39.7233 23.3349 39.7233C21.5814 39.7233 20.5024 40.5326 20.5024 41.8139C20.5024 43.1628 21.5814 43.9046 23.2675 43.9046C23.8744 43.9046 24.2791 43.8372 24.4814 43.7698V42.2186H23.0651V41.6791H25.4256V44.1744H25.3582Z" fill="white"/>
<path d="M26.7744 44.3767V39.1837H27.786L30.0791 41.8139C30.6186 42.4209 31.0233 42.9605 31.3605 43.5C31.293 42.8256 31.2256 42.1512 31.2256 41.3419V39.1837H32.1023V44.3767H31.1581L28.9326 41.7465C28.4605 41.1395 27.9884 40.6 27.5837 39.993C27.6512 40.6674 27.6512 41.2744 27.6512 42.1512V44.3767H26.7744Z" fill="white"/>
<path d="M41.9489 42.0837C41.8814 41.3419 41.814 40.4651 41.814 39.8581C41.5442 40.4651 41.2744 41.1395 40.9372 41.8139L39.6558 44.3093H38.9814L37.7675 41.8814C37.4302 41.1395 37.1605 40.4651 36.9582 39.8581C36.9582 40.5326 36.8907 41.3419 36.8233 42.1512L36.6209 44.3767H35.7442L36.2163 39.1837H37.3628L38.5768 41.6791C38.8465 42.286 39.1163 42.893 39.3186 43.4326C39.5209 42.893 39.7907 42.3535 40.0605 41.6791L41.3419 39.1837H42.4884L42.9605 44.3767H42.0837L41.9489 42.0837Z" fill="white"/>
<path d="M45.4558 42.7581L44.714 44.3767H43.7698L46.1977 39.1837H47.2768L49.7047 44.3767H48.693L47.9512 42.7581H45.4558ZM47.8163 42.2186L47.1419 40.7349C47.007 40.3977 46.8721 40.0605 46.8047 39.7907C46.6698 40.0605 46.6023 40.3977 46.4674 40.7349L45.793 42.2186H47.8163Z" fill="white"/>
<path d="M50.7837 39.3186C51.3232 39.2512 51.9977 39.1837 52.7395 39.1837C54.0884 39.1837 54.9651 39.386 55.6395 39.8581C56.3139 40.2628 56.6511 40.8698 56.6511 41.7465C56.6511 42.6233 56.3139 43.2977 55.6395 43.7698C54.9651 44.2419 53.886 44.5116 52.4697 44.5116C51.7953 44.5116 51.2558 44.5116 50.7837 44.4442V39.3186ZM51.7279 43.8372C51.9302 43.8372 52.2674 43.8372 52.6721 43.8372C54.6279 43.8372 55.707 43.0279 55.707 41.6116C55.707 40.3977 54.7628 39.5884 52.8069 39.5884C52.3349 39.5884 51.9977 39.5884 51.7279 39.6558V43.8372Z" fill="white"/>
<path d="M61.507 41.9488H58.7419V43.8372H61.8442V44.3767H57.8651V39.1837H61.7093V39.7233H58.8093V41.3419H61.5744V41.9488H61.507Z" fill="white"/>
<path d="M68.9256 41.9488H66.1604V43.8372H69.2628V44.3767H65.2837V39.1837H69.1279V39.7233H66.2279V41.3419H68.993V41.9488H68.9256Z" fill="white"/>
<path d="M71.6232 42.7581L70.8814 44.3767H69.9372L72.3651 39.1837H73.4442L75.8721 44.3767H74.8604L74.1186 42.7581H71.6232ZM73.9163 42.2186L73.2418 40.7349C73.107 40.3977 72.9721 40.0605 72.9046 39.7907C72.7697 40.0605 72.7023 40.3977 72.5674 40.7349L71.893 42.2186H73.9163Z" fill="white"/>
<path d="M76.8163 43.5674C77.2209 43.7698 77.8279 43.9046 78.4349 43.9046C79.3791 43.9046 79.9186 43.5674 79.9186 43.0279C79.9186 42.5558 79.514 42.286 78.5698 42.0163C77.4233 41.6791 76.6814 41.2744 76.6814 40.5326C76.6814 39.7233 77.6256 39.1163 78.9744 39.1163C79.7163 39.1163 80.2558 39.2512 80.5256 39.386L80.2558 39.9256C80.0535 39.8581 79.5814 39.6558 78.907 39.6558C77.9628 39.6558 77.5581 40.0605 77.5581 40.4651C77.5581 40.9372 77.9628 41.207 78.9744 41.4767C80.1884 41.8139 80.7953 42.2186 80.7953 43.0279C80.7953 43.8372 79.9861 44.5116 78.3 44.5116C77.6256 44.5116 76.8837 44.3767 76.4791 44.1744L76.8163 43.5674Z" fill="white"/>
<path d="M83.6953 44.3767V42.1512L81.4697 39.1837H82.5488L83.5604 40.6C83.8302 41.0047 84.0325 41.2744 84.2348 41.6791C84.4372 41.3419 84.7069 41.0047 84.9767 40.6L85.9883 39.1837H87L84.6395 42.1512V44.3767H83.6953Z" fill="white"/>
<path d="M0 6.13716V0.202271C0 0.202271 7.21628 0.202271 10.1163 0.202271C13.0163 0.202271 23.6047 1.41623 26.3023 12.8813C26.9767 16.2534 25.6279 24.0767 25.6279 24.0767C25.6279 24.0767 26.3023 12.8813 15.5116 7.48599C10.1163 4.78832 0 6.13716 0 6.13716Z" fill="url(#paint0_linear)"/>
<path d="M0 9.17209V33.7884C0 33.7884 9.03721 33.7884 12.2744 33.7884C15.5116 33.7884 24.9535 30.4163 20.907 14.2302C20.2326 17.6023 19.5581 27.0442 12.814 27.0442C6.06977 27.0442 6.74419 27.0442 6.74419 27.0442V9.17209H0Z" fill="url(#paint1_linear)"/>
<path d="M30.2138 33.7884H37.0929V16.9954C37.0929 16.9954 35.2045 22.5256 30.2138 24.414C30.2138 26.9093 30.2138 33.7884 30.2138 33.7884Z" fill="url(#paint2_linear)"/>
<path d="M30.2138 20.8395V0H37.0929V13.9605C37.0929 13.9605 33.3161 21.0419 30.2138 20.8395Z" fill="url(#paint3_linear)"/>
<path d="M80.1208 33.7884H86.9999V16.9954C86.9999 16.9954 85.1115 22.5256 80.1208 24.414C80.1208 26.9093 80.1208 33.7884 80.1208 33.7884Z" fill="url(#paint4_linear)"/>
<path d="M80.1208 20.8395V0H86.9999V13.9605C86.9999 13.9605 83.2231 21.0419 80.1208 20.8395Z" fill="url(#paint5_linear)"/>
<path d="M65.7558 9.50927L70.4767 4.78834C70.4767 4.78834 67.1047 0.0674133 56.9884 0.0674133C46.8721 0.0674133 41.4767 10.1837 41.4767 16.9279C44.8488 12.2069 52.2674 1.41625 65.7558 9.50927Z" fill="url(#paint6_linear)"/>
<path d="M75.8721 16.2535C75.8721 16.2535 76.5465 34.4628 58.3372 34.4628C43.5 34.4628 45.8605 18.9512 45.8605 18.9512C45.8605 18.9512 49.5698 27.7186 59.0117 27.7186C64.407 27.7186 66.4303 22.9977 66.4303 22.9977H55.9768V16.2535H75.8721Z" fill="url(#paint7_linear)"/>
<defs>
<linearGradient id="paint0_linear" x1="23.2812" y1="6.07133" x2="5.79278" y2="16.1683" gradientUnits="userSpaceOnUse">
<stop offset="2.54646e-07" stop-color="#F2F2F2"/>
<stop offset="0.000776367" stop-color="#F2F2F2"/>
<stop offset="0.0914942" stop-color="#D2D2D2"/>
<stop offset="0.185" stop-color="#B9B9B9"/>
<stop offset="0.2827" stop-color="#A7A7A7"/>
<stop offset="0.3864" stop-color="#9C9C9C"/>
<stop offset="0.5061" stop-color="#999999"/>
<stop offset="0.9997" stop-color="#F2F2F2"/>
</linearGradient>
<linearGradient id="paint1_linear" x1="20.3089" y1="27.5942" x2="-3.98541" y2="18.7517" gradientUnits="userSpaceOnUse">
<stop stop-color="#F2F2F2"/>
<stop offset="0.4978" stop-color="#999999"/>
<stop offset="0.5904" stop-color="#9F9F9F"/>
<stop offset="0.7084" stop-color="#AEAEAE"/>
<stop offset="0.8402" stop-color="#C9C9C9"/>
<stop offset="0.9812" stop-color="#EDEDED"/>
<stop offset="0.9997" stop-color="#F2F2F2"/>
</linearGradient>
<linearGradient id="paint2_linear" x1="40.7289" y1="23.2899" x2="28.3047" y2="30.463" gradientUnits="userSpaceOnUse">
<stop stop-color="#F2F2F2"/>
<stop offset="0.166" stop-color="#D0D0D0"/>
<stop offset="0.3479" stop-color="#B2B2B2"/>
<stop offset="0.5037" stop-color="#A0A0A0"/>
<stop offset="0.6139" stop-color="#999999"/>
<stop offset="0.6823" stop-color="#9E9E9E"/>
<stop offset="0.7591" stop-color="#ABABAB"/>
<stop offset="0.8401" stop-color="#C2C2C2"/>
<stop offset="0.9234" stop-color="#E1E1E1"/>
<stop offset="0.962" stop-color="#F2F2F2"/>
</linearGradient>
<linearGradient id="paint3_linear" x1="39.9902" y1="5.05045" x2="25.8155" y2="13.2342" gradientUnits="userSpaceOnUse">
<stop stop-color="#F2F2F2"/>
<stop offset="0.166" stop-color="#D0D0D0"/>
<stop offset="0.3479" stop-color="#B2B2B2"/>
<stop offset="0.5037" stop-color="#A0A0A0"/>
<stop offset="0.6139" stop-color="#999999"/>
<stop offset="0.6823" stop-color="#9E9E9E"/>
<stop offset="0.7591" stop-color="#ABABAB"/>
<stop offset="0.8401" stop-color="#C2C2C2"/>
<stop offset="0.9234" stop-color="#E1E1E1"/>
<stop offset="0.962" stop-color="#F2F2F2"/>
</linearGradient>
<linearGradient id="paint4_linear" x1="90.6359" y1="23.2899" x2="78.2117" y2="30.463" gradientUnits="userSpaceOnUse">
<stop stop-color="#F2F2F2"/>
<stop offset="0.5039" stop-color="#B3B3B3"/>
<stop offset="1" stop-color="#F2F2F2"/>
</linearGradient>
<linearGradient id="paint5_linear" x1="89.8972" y1="5.05045" x2="75.7225" y2="13.2343" gradientUnits="userSpaceOnUse">
<stop stop-color="#F2F2F2"/>
<stop offset="0.5039" stop-color="#B3B3B3"/>
<stop offset="1" stop-color="#F2F2F2"/>
</linearGradient>
<linearGradient id="paint6_linear" x1="67.7282" y1="0.0255326" x2="40.7217" y2="15.6178" gradientUnits="userSpaceOnUse">
<stop stop-color="#F2F2F2"/>
<stop offset="0.5044" stop-color="#999999"/>
<stop offset="1" stop-color="#F2F2F2"/>
</linearGradient>
<linearGradient id="paint7_linear" x1="75.1524" y1="15.0046" x2="48.3791" y2="30.4622" gradientUnits="userSpaceOnUse">
<stop stop-color="#F2F2F2"/>
<stop offset="0.5044" stop-color="#999999"/>
<stop offset="1" stop-color="#F2F2F2"/>
</linearGradient>
</defs>
</svg>
