<svg width="169" height="42" viewBox="0 0 169 42" fill="none" xmlns="http://www.w3.org/2000/svg">
<path d="M37.3863 17.5484C37.3863 21.6412 37.3764 25.5395 37.3863 29.4344C37.4127 37.0298 41.9145 41.5349 49.5164 41.5613C55.2319 41.581 60.9474 41.5646 66.6661 41.5646C67.1905 41.5646 67.7149 41.5646 68.2129 41.5646V35.8227C67.4511 35.8227 66.798 35.8227 66.145 35.8227C60.8121 35.8227 55.4826 35.8491 50.1497 35.8029C48.9558 35.793 47.7223 35.671 46.5779 35.3511C45.0476 34.9223 44.0186 33.8736 43.5998 32.0036H67.6028V26.4234H43.3425V23.0528H68.2459V17.5484H37.383H37.3863ZM72.5927 17.522V41.4524H78.2587V23.2737H98.9109C98.4161 25.4966 97.3344 26.397 95.0753 26.4168C91.3386 26.4497 87.6019 26.4266 83.8686 26.4266C82.9583 26.4266 82.0481 26.4266 81.1609 26.4266V32.1223C83.1925 32.1223 85.1185 32.0234 87.0248 32.1685C87.8592 32.2312 88.8354 32.6038 89.4356 33.1711C92.0345 35.6182 94.5113 38.194 97.0508 40.7071C97.3872 41.0402 97.8192 41.4953 98.2216 41.5118C100.382 41.5909 102.549 41.5481 104.712 41.5481C104.831 41.3568 104.953 41.1655 105.072 40.9742C102.047 38.1511 99.0263 35.328 95.8503 32.3631C104.804 30.6085 105.418 24.9425 104.636 17.522H72.5927ZM109.613 41.4557C116.565 41.4557 123.379 41.7591 130.153 41.3601C135.634 41.0369 139.094 37.8081 139.717 32.3631C140.275 27.5018 139.836 22.5284 139.836 17.5814H109.672V23.2375H134.262C134.262 25.6285 134.335 27.825 134.246 30.0182C134.101 33.6691 132.227 35.5984 128.593 35.7534C125.631 35.8788 122.663 35.8095 119.698 35.8227C118.287 35.8293 116.878 35.8227 115.305 35.8227V26.8785H109.61V41.4524L109.613 41.4557ZM32.7394 41.5613V17.1196H27.0207V32.7292C26.0972 31.8321 25.3387 31.1263 24.6164 30.3876C19.7024 25.3581 14.3035 21.0245 7.84598 18.0728C5.27023 16.8954 2.69448 16.9185 0 17.1196V41.4293H5.75834V23.4782C9.65 24.6391 12.9348 26.5784 15.6227 29.2465C19.1186 32.716 22.2715 36.5318 25.5992 40.1728C26.0873 40.7071 26.6909 41.4359 27.2977 41.4953C29.0786 41.6734 30.8892 41.558 32.7328 41.558L32.7394 41.5613Z" fill="#9EECFE"/>
<path d="M37.3863 17.5484H68.2491V23.0528H43.3458V26.4234H67.606V32.0036H43.6031C44.0219 33.8736 45.0509 34.9191 46.5812 35.3511C47.7256 35.671 48.959 35.7931 50.1529 35.803C55.4825 35.8491 60.8154 35.8227 66.1483 35.8227C66.8013 35.8227 67.4543 35.8227 68.2162 35.8227V41.5646C67.7182 41.5646 67.1938 41.5646 66.6694 41.5646C60.9539 41.5646 55.2385 41.5811 49.5197 41.5613C41.9178 41.5349 37.416 37.0298 37.3896 29.4345C37.3764 25.5395 37.3896 21.6413 37.3896 17.5484H37.3863Z" fill="#9EECFE"/>
<path d="M72.5927 17.5221H104.636C105.418 24.9426 104.801 30.6053 95.8503 32.3631C99.023 35.3281 102.047 38.1512 105.072 40.9743C104.953 41.1655 104.831 41.3568 104.712 41.5481C102.549 41.5481 100.382 41.591 98.2215 41.5118C97.8192 41.4986 97.3871 41.0402 97.0507 40.7071C94.5113 38.1973 92.0345 35.6183 89.4356 33.1711C88.8354 32.6072 87.8592 32.2345 87.0248 32.1685C85.1185 32.0234 83.1958 32.1224 81.1609 32.1224V26.4267C82.0481 26.4267 82.9583 26.4267 83.8686 26.4267C87.6052 26.4267 91.3419 26.4498 95.0752 26.4168C97.3344 26.397 98.4161 25.4967 98.9108 23.2738H78.2586V41.4558H72.5927V17.5221Z" fill="#9EECFE"/>
<path d="M109.61 41.4558V26.8818H115.305V35.8261C116.875 35.8261 118.287 35.8294 119.698 35.8261C122.663 35.8129 125.635 35.8821 128.593 35.7568C132.228 35.6018 134.098 33.6725 134.246 30.0216C134.335 27.8317 134.262 25.6319 134.262 23.2408H109.672V17.5847H139.836C139.836 22.5318 140.275 27.5052 139.717 32.3664C139.094 37.8082 135.634 41.0369 130.153 41.3634C123.379 41.7625 116.565 41.4591 109.613 41.4591L109.61 41.4558Z" fill="#9EECFE"/>
<path d="M32.7361 41.5613C30.8925 41.5613 29.0819 41.6767 27.301 41.4986C26.6942 41.4392 26.0873 40.7071 25.6025 40.1761C22.2748 36.5351 19.1219 32.7193 15.626 29.2498C12.9381 26.5817 9.6533 24.6424 5.76164 23.4815V41.4293H0V17.1196C2.69448 16.9185 5.27023 16.8954 7.84598 18.0728C14.3035 21.0245 19.7024 25.3581 24.6131 30.3876C25.3354 31.1296 26.0972 31.8321 27.0174 32.7292V17.1196H32.7361V41.5613Z" fill="#9EECFE"/>
<path d="M143.99 42C143.99 40.5921 143.873 39.2094 144.054 37.8493C144.114 37.3859 144.859 36.9225 145.399 36.5522C149.101 34.0109 152.982 31.6031 156.51 28.9333C159.223 26.8807 161.195 24.3721 162.376 21.4001L144.124 21.4001L144.124 17L168.845 17C169.05 19.0578 169.074 21.0248 167.876 22.9919C164.875 27.9234 160.468 32.0464 155.353 35.7966C154.598 36.3482 153.884 36.93 152.972 37.6327L168.845 37.6327L168.845 42L143.99 42Z" fill="#9EECFE"/>
<path d="M10.8511 1.48832C10.9292 1.27738 11.0386 1.12894 11.1792 1.04301C11.3198 0.957069 11.5229 0.914101 11.7886 0.914101C12.0776 0.914101 12.2808 0.984413 12.3979 1.12504C12.5151 1.26566 12.5737 1.55473 12.5737 1.99223C12.5737 2.75785 12.5815 3.47269 12.5972 4.13676C12.6128 4.79301 12.6206 5.07816 12.6206 4.99223C12.6206 5.35941 12.5581 5.60941 12.4331 5.74223C12.3081 5.86723 12.0854 5.92973 11.7651 5.92973C11.2495 5.92973 10.9136 5.56254 10.7573 4.82816C10.7026 4.60941 10.6597 4.44144 10.6284 4.32426C10.48 3.73832 10.1245 3.26176 9.56201 2.89457C8.99951 2.51957 8.33936 2.33207 7.58154 2.33207C6.19873 2.33207 5.08936 2.83988 4.25342 3.85551C3.41748 4.86332 2.99951 6.21879 2.99951 7.92191C2.99951 9.62504 3.42139 10.9844 4.26514 12C5.1167 13.0079 6.23779 13.5118 7.62842 13.5118C8.08154 13.5118 8.54248 13.4493 9.01123 13.3243C9.47998 13.1914 9.94092 12.9961 10.394 12.7383C10.605 12.6289 10.894 12.4454 11.2612 12.1875C11.6284 11.9219 11.8901 11.7891 12.0464 11.7891C12.2886 11.7891 12.4917 11.8711 12.6558 12.0352C12.8276 12.1914 12.9136 12.3868 12.9136 12.6211C12.9136 12.8555 12.8198 13.0821 12.6323 13.3008C12.4526 13.5118 12.1128 13.7735 11.6128 14.086C10.9565 14.5157 10.2964 14.8321 9.63232 15.0352C8.96826 15.2383 8.26904 15.3399 7.53467 15.3399C5.60498 15.3399 4.01123 14.6602 2.75342 13.3008C1.49561 11.9336 0.866699 10.1875 0.866699 8.06254C0.866699 5.96098 1.50342 4.21488 2.77686 2.82426C4.05029 1.43363 5.65186 0.738319 7.58154 0.738319C8.09717 0.738319 8.62061 0.800819 9.15186 0.925819C9.69092 1.05082 10.2573 1.23832 10.8511 1.48832Z" fill="#9EECFE"/>
<path d="M27.9019 8.0391C27.9019 10.1797 27.3081 11.9375 26.1206 13.3125C24.9331 14.6797 23.4136 15.3633 21.562 15.3633C19.7261 15.3633 18.2104 14.6758 17.0151 13.3008C15.8276 11.9258 15.2339 10.1719 15.2339 8.0391C15.2339 5.88285 15.8237 4.12504 17.0034 2.76566C18.1831 1.39848 19.7026 0.714882 21.562 0.714882C23.4136 0.714882 24.9331 1.40238 26.1206 2.77738C27.3081 4.15238 27.9019 5.90629 27.9019 8.0391ZM21.562 13.6993C22.8745 13.6993 23.9058 13.1993 24.6558 12.1993C25.4136 11.1914 25.7925 9.80473 25.7925 8.0391C25.7925 6.27348 25.4136 4.89066 24.6558 3.89066C23.9058 2.88285 22.8745 2.37894 21.562 2.37894C20.2417 2.37894 19.2065 2.87894 18.4565 3.87894C17.7144 4.87113 17.3433 6.25785 17.3433 8.0391C17.3433 9.80473 17.7183 11.1914 18.4683 12.1993C19.2261 13.1993 20.2573 13.6993 21.562 13.6993Z" fill="#9EECFE"/>
<path d="M33.1753 13.3477C33.4253 13.3711 33.6714 13.3907 33.9136 13.4063C34.1636 13.4141 34.4058 13.418 34.6401 13.418C36.562 13.418 37.9683 12.9883 38.8589 12.1289C39.7573 11.2696 40.2065 9.9141 40.2065 8.06254C40.2065 6.20316 39.7573 4.8516 38.8589 4.00785C37.9604 3.15629 36.5229 2.73051 34.5464 2.73051C34.1792 2.73051 33.8979 2.73441 33.7026 2.74223C33.5151 2.75004 33.3394 2.76566 33.1753 2.7891V13.3477ZM33.1753 15H31.3237H30.7964C30.5073 15 30.2886 14.9297 30.1401 14.7891C29.9995 14.6485 29.9292 14.4375 29.9292 14.1563C29.9292 13.8516 30.0112 13.6407 30.1753 13.5235C30.3472 13.4063 30.6675 13.3477 31.1362 13.3477H31.3472V2.7891H31.1597C30.6909 2.7891 30.3667 2.7266 30.187 2.6016C30.0151 2.4766 29.9292 2.25785 29.9292 1.94535C29.9292 1.65629 29.9995 1.44535 30.1401 1.31254C30.2886 1.17191 30.5151 1.1016 30.8198 1.1016H31.3237H33.1753H35.7651C37.7104 1.1016 39.2612 1.73051 40.4175 2.98832C41.5737 4.23832 42.1519 5.92973 42.1519 8.06254C42.1519 9.1016 41.9839 10.0664 41.6479 10.9571C41.3198 11.8477 40.8394 12.6289 40.2065 13.3008C39.6206 13.9102 38.9058 14.3555 38.062 14.6368C37.2261 14.9102 36.1479 15.0469 34.8276 15.0469C34.6714 15.0469 34.4058 15.0391 34.0308 15.0235C33.6636 15.0079 33.3784 15 33.1753 15Z" fill="#9EECFE"/>
<path d="M45.3745 15H44.8237C44.5425 15 44.3276 14.9297 44.1792 14.7891C44.0386 14.6485 43.9683 14.4375 43.9683 14.1563C43.9683 13.8438 44.0503 13.6329 44.2144 13.5235C44.3862 13.4063 44.7729 13.3477 45.3745 13.3477H46.1245V2.7891H45.3745C44.7886 2.7891 44.4058 2.73051 44.2261 2.61332C44.0542 2.48832 43.9683 2.26566 43.9683 1.94535C43.9683 1.65629 44.0386 1.44535 44.1792 1.31254C44.3276 1.17191 44.5503 1.1016 44.8472 1.1016H45.3745H55.0542C55.3198 1.1016 55.519 1.18363 55.6519 1.34769C55.7925 1.50394 55.8628 1.73441 55.8628 2.0391V4.80473C55.8628 5.21098 55.8042 5.49223 55.687 5.64848C55.5698 5.80473 55.3589 5.88285 55.0542 5.88285C54.7339 5.88285 54.5112 5.79691 54.3862 5.62504C54.269 5.45316 54.2104 5.06644 54.2104 4.46488V2.7891H47.9761V6.73832H51.0464V6.11723C51.0464 5.69535 51.1011 5.40238 51.2104 5.23832C51.3276 5.07426 51.5269 4.99223 51.8081 4.99223C52.0815 4.99223 52.269 5.08207 52.3706 5.26176C52.48 5.43363 52.5347 5.80863 52.5347 6.38676V8.56644C52.5347 9.15238 52.48 9.52738 52.3706 9.69144C52.2612 9.85551 52.0659 9.93754 51.7847 9.93754C51.5034 9.93754 51.3081 9.84379 51.1987 9.65629C51.0972 9.46879 51.0464 9.10551 51.0464 8.56644V8.15629H47.9761V13.3477H54.2104V11.4493C54.2104 10.8477 54.269 10.461 54.3862 10.2891C54.5112 10.1172 54.7339 10.0313 55.0542 10.0313C55.3511 10.0313 55.5581 10.1133 55.6753 10.2774C55.8003 10.4336 55.8628 10.7344 55.8628 11.1797V14.1329C55.8628 14.4141 55.7925 14.6289 55.6519 14.7774C55.5112 14.9258 55.312 15 55.0542 15H45.3745Z" fill="#9EECFE"/>
<path d="M62.1909 2.68363V7.41801H64.6167C65.7104 7.41801 66.5308 7.22269 67.0776 6.83207C67.6323 6.43363 67.9097 5.84379 67.9097 5.06254C67.9097 4.27348 67.6401 3.67973 67.1011 3.28129C66.562 2.88285 65.7573 2.68363 64.687 2.68363H62.1909ZM62.1909 13.3477H62.9878C63.4409 13.3477 63.7612 13.4102 63.9487 13.5352C64.1362 13.6602 64.23 13.8672 64.23 14.1563C64.23 14.4688 64.1479 14.6875 63.9839 14.8125C63.8198 14.9375 63.5112 15 63.0581 15H59.1206C58.855 15 58.6519 14.9297 58.5112 14.7891C58.3706 14.6407 58.3003 14.4297 58.3003 14.1563C58.3003 13.8672 58.3784 13.6602 58.5347 13.5352C58.6909 13.4102 58.9487 13.3477 59.3081 13.3477H59.6948H60.3745V2.68363H59.6948C59.1089 2.68363 58.73 2.62894 58.5581 2.51957C58.3862 2.41019 58.3003 2.20316 58.3003 1.89848C58.3003 1.63285 58.3667 1.43363 58.4995 1.30082C58.6401 1.16801 58.8472 1.1016 59.1206 1.1016H64.0659C65.2612 1.1016 66.1519 1.16019 66.7378 1.27738C67.3315 1.38676 67.8315 1.57816 68.2378 1.8516C68.7612 2.20316 69.1714 2.66801 69.4683 3.24613C69.7729 3.82426 69.9253 4.44535 69.9253 5.10941C69.9253 6.00785 69.6479 6.78129 69.0933 7.42973C68.5464 8.07035 67.7808 8.51566 66.7964 8.76566C66.9995 8.88285 67.1792 9.01957 67.3354 9.17582C67.4995 9.33207 67.6558 9.51957 67.8042 9.73832L70.1597 13.3477H70.5464C70.9839 13.3477 71.2847 13.4102 71.4487 13.5352C71.6128 13.6524 71.6948 13.8594 71.6948 14.1563C71.6948 14.4297 71.6245 14.6407 71.4839 14.7891C71.3511 14.9297 71.1519 15 70.8862 15H69.562C69.1792 15 68.8042 14.7188 68.437 14.1563C68.3901 14.1094 68.355 14.0704 68.3315 14.0391L66.0815 10.6289C65.6206 9.93363 65.2378 9.48441 64.9331 9.28129C64.6362 9.07816 64.2417 8.9766 63.7495 8.9766H62.1909V13.3477Z" fill="#9EECFE"/>
</svg>
