<svg width="174" height="73" viewBox="0 0 174 73" fill="none" xmlns="http://www.w3.org/2000/svg">
<path d="M132.524 62.2144V58.0605L145.895 42.4605V42.3682H132.524V38.2144H152.419V42.3682L139.048 57.9682V58.0605H152.419V62.2144H132.524Z" fill="#3C3C3C"/>
<path d="M50.5392 43.358C50.5544 43.4183 50.8148 43.6566 50.8729 43.6148C53.1597 39.6585 57.5679 38.6623 61.7 40.2328C68.8753 42.96 70.243 53.7303 65.5345 59.2787C61.7341 63.7571 54.1298 64.0378 50.873 58.8463C50.8081 58.7997 50.5392 59.0723 50.5392 59.1031V72.5378H45.6545V40.0207H50.5392C50.6903 40.9392 50.3339 42.5411 50.5392 43.358ZM55.7205 44.0016C49.2162 44.9592 48.5468 56.185 55.1276 58.035C65.2307 60.8751 66.2798 42.4471 55.7205 44.0016Z" fill="#3C3C3C"/>
<path d="M90.291 62.2692H85.659C85.1013 61.9247 85.5904 59.9252 85.4054 59.7029L83.0346 61.4853C78.9647 63.9849 71.2435 62.5921 70.602 57.031C69.5644 48.0353 79.4066 47.6802 85.574 49.4326C85.3641 48.1001 85.4998 47.1346 84.6521 46.0069C82.3905 42.9979 76.8384 44.1781 73.8793 45.4919L72.436 41.3918C77.6329 39.122 87.1756 38.0173 89.6494 44.6945C89.784 45.058 90.291 46.8763 90.291 47.1231V62.2692ZM79.8139 51.8811C77.3091 52.0858 75.0906 53.2449 75.484 56.1791C76.0325 60.2694 84.955 59.7248 85.5562 54.8055C85.6038 54.4157 85.6525 53.2833 85.5477 52.9696C85.2592 52.1061 80.7357 51.8058 79.8139 51.8811Z" fill="#3C3C3C"/>
<path d="M130.21 38.3093L119.938 46.7929L130.21 62.2693H124.315L115.978 49.9655L114.546 50.9739V62.2693H109.661V48.6634L122.546 38.3093H130.21Z" fill="#3C3C3C"/>
<path d="M114.547 31.4636V39.764L100.398 51.0594V62.2693H95.5132V40.0207H100.398V44.4704C100.944 44.3356 101.45 43.8535 101.896 43.5114C104.536 41.4861 107.107 39.3325 109.662 37.1969V31.4636H114.547Z" fill="#EE5921"/>
<path d="M0 31.6166V0.5H9.48059C13.5256 0.5 16.5313 1.12517 18.4977 2.37552C20.4921 3.62587 21.4893 5.5156 21.4893 8.04471C21.4893 9.89181 20.9837 11.4263 19.9724 12.6483C18.9612 13.8418 17.5426 14.6375 15.7167 15.0353V15.1205C18.0482 15.49 19.8039 16.3283 20.9837 17.6354C22.1635 18.9426 22.7534 20.6903 22.7534 22.8784C22.7534 25.8053 21.6719 27.9934 19.5089 29.4427C17.346 30.892 14.0734 31.6166 9.69127 31.6166H0ZM9.69127 27.4393C12.5846 27.4393 14.6914 27.0415 16.0117 26.2458C17.36 25.4217 18.0342 24.1429 18.0342 22.4095C18.0342 20.6476 17.36 19.3689 16.0117 18.5732C14.6633 17.7491 12.5565 17.3371 9.69127 17.3371H2.31748V13.2876H9.69127C12.1632 13.2876 13.9751 12.9324 15.1268 12.222C16.2785 11.4832 16.8544 10.3607 16.8544 8.85459C16.8544 7.37691 16.2926 6.31127 15.1689 5.65768C14.0453 5.00409 12.2194 4.6773 9.69127 4.6773H4.63495V27.4393H9.69127Z" fill="#3C3C3C"/>
<path d="M27.6027 31.6166V9.45135H31.9848L32.0269 13.7139H32.1112C32.8135 12.7193 33.6562 11.881 34.6394 11.199C35.6506 10.4886 36.7743 9.94865 38.0102 9.57923C39.2743 9.20981 40.5805 9.0251 41.9289 9.0251V13.0745C40.1311 13.0745 38.4878 13.4297 36.999 14.1402C35.5383 14.8506 34.3725 15.8025 33.5017 16.9961C32.6309 18.1896 32.1955 19.511 32.1955 20.9602V31.6166H27.6027Z" fill="#3C3C3C"/>
<path d="M68.8334 31.6166V9.45135H73.1733L73.2155 12.0941H73.2998C74.1706 11.0711 75.224 10.3039 76.46 9.79236C77.6959 9.28085 79.1286 9.0251 80.7578 9.0251C83.4545 9.0251 85.4349 9.74973 86.699 11.199C87.9912 12.6483 88.6372 14.9074 88.6372 17.9764V31.6166H84.0866V18.829C84.0866 16.7829 83.7073 15.2768 82.9489 14.3107C82.2185 13.3445 81.0668 12.8614 79.4938 12.8614C78.3139 12.8614 77.2605 13.1029 76.3335 13.586C75.4066 14.0691 74.6762 14.7227 74.1425 15.5468C73.6368 16.3709 73.384 17.3229 73.384 18.4027V31.6166H68.8334Z" fill="#3C3C3C"/>
<path d="M64.2006 31.6166H59.5686C59.0109 31.2721 59.5 29.2726 59.3151 29.0503L56.9443 30.8327C52.8743 33.3323 45.1531 31.9395 44.5116 26.3784C43.474 17.3827 53.3163 17.0276 59.4836 18.78C59.2737 17.4475 59.4094 16.482 58.5618 15.3542C56.3001 12.3453 50.748 13.5255 47.7889 14.8393L46.3456 10.7391C51.5425 8.46941 61.0853 7.36464 63.559 14.0419C63.6937 14.4054 64.2006 16.2237 64.2006 16.4705V31.6166ZM53.7235 21.2285C51.2187 21.4332 49.0002 22.5923 49.3936 25.5265C49.9421 29.6168 58.8646 29.0722 59.4658 24.1529C59.5134 23.7631 59.5622 22.6306 59.4574 22.3169C59.1689 21.4535 54.6453 21.1532 53.7235 21.2285Z" fill="#3C3C3C"/>
<path d="M102.263 32.0429C99.3417 32.0429 97.0523 31.0341 95.395 29.0164C93.7376 26.9704 92.9089 24.1429 92.9089 20.534C92.9089 16.925 93.7376 14.1117 95.395 12.0941C97.0523 10.0481 99.3417 9.0251 102.263 9.0251C103.752 9.0251 105.1 9.29506 106.308 9.83498C107.544 10.3465 108.555 11.0995 109.342 12.0941H109.426V0.5H114.545V31.6166H109.637L109.595 28.9738H109.511C108.724 29.94 107.685 30.6931 106.392 31.233C105.128 31.7729 103.752 32.0429 102.263 32.0429ZM103.274 28.2066C104.482 28.2066 105.536 27.965 106.435 27.4819C107.362 26.9988 108.092 26.331 108.626 25.4785C109.159 24.626 109.426 23.6741 109.426 22.6226V18.4453C109.426 17.3655 109.159 16.4135 108.626 15.5894C108.092 14.7369 107.362 14.0691 106.435 13.586C105.536 13.1029 104.496 12.8614 103.317 12.8614C101.434 12.8614 99.9737 13.5292 98.9344 14.8648C97.895 16.172 97.3753 18.0617 97.3753 20.534C97.3753 22.9778 97.895 24.8676 98.9344 26.2032C99.9737 27.5388 101.42 28.2066 103.274 28.2066Z" fill="#EE5921"/>
<path d="M33.2589 62.9001C32.2847 62.9001 31.2688 62.8292 30.2112 62.6874C29.1813 62.574 28.1933 62.4038 27.2469 62.177C26.3006 61.9217 25.4656 61.6381 24.7419 61.3262L25.3682 57.5827C26.5929 58.0364 27.8314 58.4051 29.0839 58.6887C30.3364 58.9439 31.575 59.0716 32.7996 59.0716C34.414 59.0716 35.6108 58.8447 36.3901 58.3909C37.1973 57.9088 37.6009 57.1998 37.6009 56.2639C37.6009 55.7251 37.4617 55.2855 37.1834 54.9452C36.905 54.5765 36.418 54.2504 35.7221 53.9668C35.0263 53.6548 34.0661 53.3571 32.8414 53.0735C31.1714 52.6481 29.7102 52.1518 28.4577 51.5846C27.233 51.0174 26.2867 50.2942 25.6187 49.4151C24.9507 48.5359 24.6167 47.4299 24.6167 46.097C24.6167 44.0834 25.3682 42.552 26.8712 41.5027C28.402 40.4534 30.6008 39.9287 33.4676 39.9287C34.8036 39.9287 36.1675 40.0422 37.5591 40.269C38.9786 40.4959 40.2728 40.822 41.4418 41.2474L40.7738 44.9909C39.6605 44.5655 38.5333 44.2536 37.3921 44.0551C36.2788 43.8565 35.1515 43.7573 34.0104 43.7573C32.3682 43.7573 31.1436 43.97 30.3364 44.3954C29.5571 44.7924 29.1674 45.4022 29.1674 46.2246C29.1674 46.7067 29.2927 47.1179 29.5432 47.4582C29.8215 47.7986 30.2947 48.1105 30.9627 48.3941C31.6307 48.6777 32.5631 48.9613 33.7599 49.2449C34.9845 49.5285 36.0979 49.8688 37.0999 50.2659C38.1297 50.6629 39.0204 51.145 39.7718 51.7122C40.5233 52.251 41.1078 52.9033 41.5253 53.669C41.9428 54.4347 42.1516 55.3423 42.1516 56.3916C42.1516 57.7528 41.7898 58.9156 41.0661 59.8798C40.3703 60.8441 39.3544 61.5956 38.0184 62.1344C36.7102 62.6449 35.1237 62.9001 33.2589 62.9001Z" fill="#3C3C3C"/>
<path d="M173.251 28.4681C173.109 28.384 172.333 26.1774 172.134 25.7524C170.367 21.9677 167.889 18.4116 164.977 15.4679C164.591 15.0774 163.897 14.3391 163.495 14.0391C162.933 13.6184 162.861 13.8477 163.127 14.4155C163.624 15.4763 165.237 17.2069 165.976 18.3072C167.965 21.2667 170.587 26.0994 171.5 29.5383C171.559 29.76 171.583 29.9677 171.561 30.1961L155.675 31.6359L171.561 33.2044C171.726 33.3667 170.529 36.5289 170.342 36.9947C168.188 42.3536 165.589 45.2816 162.413 49.8258C162.331 49.9443 161.983 50.3664 162.081 50.466C162.38 50.4903 162.581 50.2488 162.788 50.0778C163.921 49.1433 165.758 47.1669 166.758 46.022C169.544 42.8321 171.499 38.9942 173.289 35.1597C173.387 34.9612 173.838 35.1063 173.874 35.2537C173.933 35.4959 173.651 37.5164 173.592 37.9587C172.472 46.3657 169.113 53.8205 164.238 60.5813C163.955 60.9742 162.954 62.3491 162.681 62.5878C162.582 62.675 162.019 62.9566 161.953 62.8899C162.382 61.5312 163.035 60.2525 163.492 58.9038C164.357 56.3494 165.948 51.8611 161.351 53.7108C159.792 54.3381 158.3 55.6911 156.921 56.2506C156.731 56.3275 156.391 56.5131 156.438 56.152C157.666 53.4667 159.347 51.0001 160.525 48.2902C161.27 46.5767 162.095 44.2907 162.207 42.4221C162.641 35.1497 153.851 32.8987 148.372 31.894L148.372 31.5058C152.752 30.5314 159.561 29.1966 161.591 24.5309C164.015 18.9618 158.819 12.4863 156.603 7.73597C156.512 7.54213 156.445 7.33346 156.442 7.11541C156.452 6.95796 156.715 7.07415 156.821 7.12071C157.679 7.49935 158.695 8.34744 159.532 8.79997C162.297 10.2946 165.283 11.5792 164.22 6.76015C163.742 4.593 162.607 2.61735 161.953 0.510055C162.194 0.45341 162.256 0.649156 162.401 0.770758C164.181 2.26999 166.737 6.21912 167.953 8.31152C171.436 14.3043 173.44 21.2232 174 28.1653C174.009 28.5166 173.474 28.6 173.251 28.4681ZM161.888 50.5974V50.7282C161.971 50.6846 161.971 50.641 161.888 50.5974Z" fill="#EE5921"/>
</svg>
