<svg width="88" height="37" viewBox="0 0 88 37" fill="none" xmlns="http://www.w3.org/2000/svg">
<path d="M67.0234 31.3569V29.28L73.786 21.48V21.4339H67.0234V19.3569H77.0855V21.4339L70.3228 29.2339V29.28H77.0855V31.3569H67.0234Z" fill="white"/>
<path d="M25.56 21.9292C25.5677 21.9594 25.6994 22.0785 25.7288 22.0577C26.8853 20.0795 29.1147 19.5814 31.2045 20.3666C34.8334 21.7302 35.5251 27.1154 33.1438 29.8896C31.2218 32.1288 27.376 32.2691 25.7288 29.6734C25.696 29.6501 25.56 29.7864 25.56 29.8018V36.5191H23.0896V20.2606H25.56C25.6364 20.7199 25.4562 21.5208 25.56 21.9292ZM28.1804 22.2511C24.8909 22.7299 24.5524 28.3427 27.8806 29.2677C32.9902 30.6878 33.5208 21.4738 28.1804 22.2511Z" fill="white"/>
<path d="M45.6645 31.3846H43.3219C43.0398 31.2123 43.2872 30.2126 43.1936 30.1015L41.9946 30.9926C39.9362 32.2424 36.0313 31.5461 35.7068 28.7655C35.182 24.2677 40.1598 24.0901 43.2789 24.9663C43.1727 24.3001 43.2414 23.8173 42.8126 23.2534C41.6688 21.749 38.8608 22.3391 37.3643 22.996L36.6344 20.9459C39.2627 19.811 44.0889 19.2586 45.34 22.5972C45.4081 22.779 45.6645 23.6882 45.6645 23.8116V31.3846ZM40.3657 26.1906C39.0989 26.2929 37.9769 26.8725 38.1759 28.3395C38.4533 30.3847 42.9658 30.1124 43.2699 27.6528C43.294 27.4579 43.3186 26.8916 43.2656 26.7348C43.1197 26.3031 40.8319 26.1529 40.3657 26.1906Z" fill="white"/>
<path d="M65.8534 19.4048L60.6584 23.6466L65.8534 31.3848H62.8719L58.6558 25.2329L57.9311 25.7371V31.3848H55.4607V24.5818L61.9775 19.4048H65.8534Z" fill="white"/>
<path d="M57.9315 15.9819V20.1321L50.7758 25.7798V31.3847H48.3054V20.2605H50.7758V22.4853C51.0522 22.4179 51.3081 22.1769 51.5337 22.0058C52.8688 20.9932 54.169 19.9164 55.4611 18.8486V15.9819H57.9315Z" fill="#EE5921"/>
<path d="M0 16.0583V0.5H4.79478C6.84055 0.5 8.36068 0.812587 9.35515 1.43776C10.3638 2.06293 10.8682 3.0078 10.8682 4.27236C10.8682 5.19591 10.6124 5.96317 10.101 6.57413C9.58956 7.17089 8.87212 7.56873 7.94868 7.76764V7.81027C9.12784 7.99498 10.0158 8.41413 10.6124 9.06772C11.2091 9.72131 11.5075 10.5951 11.5075 11.6892C11.5075 13.1527 10.9605 14.2467 9.86659 14.9714C8.77267 15.696 7.11759 16.0583 4.90133 16.0583H0ZM4.90133 13.9697C6.36463 13.9697 7.43013 13.7707 8.09785 13.3729C8.77978 12.9608 9.12074 12.3215 9.12074 11.4547C9.12074 10.5738 8.77978 9.93444 8.09785 9.5366C7.41593 9.12456 6.35042 8.91853 4.90133 8.91853H1.17206V6.89382H4.90133C6.15153 6.89382 7.06786 6.71622 7.65034 6.361C8.23282 5.99158 8.52405 5.43035 8.52405 4.6773C8.52405 3.93846 8.23992 3.40564 7.67165 3.07884C7.10338 2.75205 6.17994 2.58865 4.90133 2.58865H2.34411V13.9697H4.90133Z" fill="white"/>
<path d="M13.96 16.0583V4.97568H16.1762L16.1975 7.10695H16.2402C16.5953 6.60965 17.0215 6.1905 17.5188 5.8495C18.0302 5.49429 18.5985 5.22432 19.2236 5.03961C19.8629 4.8549 20.5235 4.76255 21.2054 4.76255V6.78726C20.2962 6.78726 19.4651 6.96486 18.7121 7.32008C17.9734 7.67529 17.3838 8.15127 16.9434 8.74803C16.503 9.34479 16.2828 10.0055 16.2828 10.7301V16.0583H13.96Z" fill="white"/>
<path d="M34.8123 16.0583V4.97568H37.0072L37.0285 6.29707H37.0711C37.5116 5.78556 38.0443 5.40193 38.6694 5.14618C39.2945 4.89042 40.019 4.76255 40.843 4.76255C42.2069 4.76255 43.2085 5.12486 43.8478 5.8495C44.5013 6.57413 44.828 7.70371 44.828 9.23822V16.0583H42.5265V9.66448C42.5265 8.64147 42.3347 7.88842 41.9512 7.40533C41.5818 6.92224 40.9993 6.6807 40.2037 6.6807C39.6071 6.6807 39.0743 6.80147 38.6055 7.04301C38.1367 7.28456 37.7673 7.61135 37.4973 8.0234C37.2416 8.43544 37.1138 8.91143 37.1138 9.45135V16.0583H34.8123Z" fill="white"/>
<path d="M32.4693 16.0583H30.1267C29.8446 15.886 30.0919 14.8863 29.9984 14.7752L28.7994 15.6663C26.741 16.9161 22.8361 16.2198 22.5116 13.4392C21.9868 8.94136 26.9645 8.76381 30.0837 9.63998C29.9775 8.97375 30.0462 8.491 29.6174 7.92712C28.4736 6.42266 25.6656 7.01274 24.1691 7.66965L23.4392 5.61957C26.0675 4.4847 30.8937 3.93232 32.1448 7.27094C32.2129 7.4527 32.4693 8.36186 32.4693 8.48525V16.0583ZM27.1705 10.8642C25.9037 10.9666 24.7817 11.5462 24.9807 13.0132C25.2581 15.0584 29.7706 14.7861 30.0747 12.3264C30.0988 12.1316 30.1234 11.5653 30.0704 11.4085C29.9245 10.9767 27.6367 10.8266 27.1705 10.8642Z" fill="white"/>
<path d="M51.7194 16.2714C50.2419 16.2714 49.084 15.767 48.2458 14.7582C47.4076 13.7352 46.9885 12.3215 46.9885 10.517C46.9885 8.71251 47.4076 7.30587 48.2458 6.29707C49.084 5.27405 50.2419 4.76255 51.7194 4.76255C52.4723 4.76255 53.1543 4.89753 53.7652 5.16749C54.3902 5.42324 54.9017 5.79977 55.2995 6.29707H55.3421V0.5H57.9308V16.0583H55.4487L55.4273 14.7369H55.3847C54.9869 15.22 54.4613 15.5965 53.8078 15.8665C53.1685 16.1364 52.4723 16.2714 51.7194 16.2714ZM52.2308 14.3533C52.8417 14.3533 53.3745 14.2325 53.8291 13.991C54.2979 13.7494 54.6673 13.4155 54.9372 12.9893C55.2071 12.563 55.3421 12.087 55.3421 11.5613V9.47266C55.3421 8.93274 55.2071 8.45676 54.9372 8.04471C54.6673 7.61846 54.2979 7.28456 53.8291 7.04301C53.3745 6.80147 52.8488 6.6807 52.2521 6.6807C51.3003 6.6807 50.5615 7.01459 50.0359 7.68239C49.5102 8.33598 49.2474 9.28085 49.2474 10.517C49.2474 11.7389 49.5102 12.6838 50.0359 13.3516C50.5615 14.0194 51.2932 14.3533 52.2308 14.3533Z" fill="#EE5921"/>
<path d="M16.8205 31.7001C16.3278 31.7001 15.814 31.6646 15.2791 31.5937C14.7583 31.537 14.2585 31.4519 13.7799 31.3385C13.3013 31.2109 12.879 31.0691 12.5131 30.9131L12.8298 29.0413C13.4491 29.2682 14.0755 29.4526 14.709 29.5944C15.3424 29.722 15.9688 29.7858 16.5882 29.7858C17.4046 29.7858 18.0099 29.6723 18.4041 29.4455C18.8123 29.2044 19.0164 28.8499 19.0164 28.382C19.0164 28.1126 18.946 27.8928 18.8053 27.7226C18.6645 27.5383 18.4182 27.3752 18.0662 27.2334C17.7143 27.0774 17.2287 26.9285 16.6093 26.7867C15.7647 26.574 15.0257 26.3259 14.3923 26.0423C13.7729 25.7587 13.2943 25.3971 12.9565 24.9575C12.6186 24.518 12.4497 23.9649 12.4497 23.2985C12.4497 22.2917 12.8298 21.526 13.5899 21.0013C14.3641 20.4767 15.4762 20.2144 16.926 20.2144C17.6017 20.2144 18.2915 20.2711 18.9953 20.3845C19.7132 20.498 20.3678 20.661 20.959 20.8737L20.6211 22.7455C20.0581 22.5328 19.488 22.3768 18.9108 22.2775C18.3478 22.1783 17.7777 22.1286 17.2005 22.1286C16.37 22.1286 15.7507 22.235 15.3424 22.4477C14.9483 22.6462 14.7512 22.9511 14.7512 23.3623C14.7512 23.6034 14.8146 23.809 14.9413 23.9791C15.082 24.1493 15.3213 24.3053 15.6592 24.4471C15.997 24.5889 16.4686 24.7307 17.0738 24.8725C17.6932 25.0142 18.2563 25.1844 18.763 25.3829C19.2839 25.5814 19.7343 25.8225 20.1144 26.1061C20.4944 26.3755 20.7901 26.7017 21.0012 27.0845C21.2124 27.4674 21.3179 27.9211 21.3179 28.4458C21.3179 29.1264 21.1349 29.7078 20.7689 30.1899C20.417 30.672 19.9032 31.0478 19.2276 31.3172C18.566 31.5724 17.7636 31.7001 16.8205 31.7001Z" fill="white"/>
<path d="M87.6212 14.4841C87.5492 14.442 87.1568 13.3387 87.0564 13.1262C86.1626 11.2339 84.9093 9.45581 83.4365 7.98394C83.2412 7.7887 82.8902 7.41954 82.6872 7.26956C82.4026 7.0592 82.3663 7.17384 82.5008 7.45775C82.7521 7.98813 83.5679 8.85343 83.9419 9.40359C84.9477 10.8834 86.274 13.2997 86.7357 15.0191C86.7654 15.13 86.7775 15.2338 86.7667 15.348L78.7323 16.068L86.7666 16.8522C86.85 16.9334 86.2445 18.5145 86.1498 18.7473C85.0604 21.4268 83.746 22.8908 82.1401 25.1629C82.0982 25.2221 81.9222 25.4332 81.972 25.483C82.1234 25.4952 82.2249 25.3744 82.3297 25.2889C82.9027 24.8217 83.8317 23.8335 84.3374 23.261C85.7465 21.666 86.7348 19.7471 87.6405 17.8298C87.6899 17.7306 87.9178 17.8031 87.9361 17.8768C87.9661 17.998 87.8235 19.0082 87.7936 19.2293C87.227 23.4328 85.5286 27.1602 83.0628 30.5406C82.9196 30.7371 82.4132 31.4246 82.2755 31.5439C82.2252 31.5875 81.9405 31.7283 81.9071 31.6949C82.124 31.0156 82.4542 30.3763 82.6853 29.7019C83.123 28.4247 83.9276 26.1806 81.6027 27.1054C80.8143 27.4191 80.0596 28.0956 79.3623 28.3753C79.2664 28.4137 79.0943 28.5065 79.1181 28.326C79.739 26.9834 80.5892 25.7501 81.1849 24.3951C81.5616 23.5384 81.9792 22.3953 82.0356 21.4611C82.255 17.8249 77.8097 16.6993 75.0389 16.197L75.0388 16.0029C77.254 15.5157 80.6973 14.8483 81.7242 12.5155C82.95 9.73089 80.3223 6.49316 79.2013 4.11799C79.1556 4.02107 79.1214 3.91673 79.1199 3.80771C79.1252 3.72898 79.2584 3.78708 79.3117 3.81035C79.7454 3.99967 80.2592 4.42372 80.6827 4.64999C82.0811 5.3973 83.5915 6.03959 83.0539 3.63008C82.8121 2.5465 82.2378 1.55868 81.9072 0.505028C82.0291 0.476705 82.0607 0.574578 82.1337 0.635379C83.0341 1.385 84.3268 3.35956 84.9418 4.40576C86.7031 7.40213 87.7168 10.8616 88 14.3326C88.0047 14.5083 87.734 14.55 87.6212 14.4841ZM81.8744 25.5487V25.6141C81.9165 25.5923 81.9165 25.5705 81.8744 25.5487Z" fill="#EE5921"/>
</svg>
