<svg width="119" height="50" viewBox="0 0 119 50" fill="none" xmlns="http://www.w3.org/2000/svg">
<path d="M90.6343 41.9998V39.1729L99.7792 28.5562V28.4934H90.6343V25.6665H104.241V28.4934L95.096 39.1101V39.1729H104.241V41.9998H90.6343Z" fill="#3C3C3C"/>
<path d="M34.5643 29.1671C34.5747 29.2081 34.7528 29.3703 34.7925 29.3419C36.3565 26.6493 39.3713 25.9714 42.1972 27.0402C47.1045 28.8962 48.0399 36.226 44.8197 40.002C42.2206 43.0498 37.02 43.2408 34.7926 39.7077C34.7482 39.676 34.5643 39.8615 34.5643 39.8825V49.0256H31.2236V26.8959H34.5643C34.6676 27.521 34.4239 28.6112 34.5643 29.1671ZM38.1078 29.6051C33.6594 30.2568 33.2017 37.8966 37.7024 39.1556C44.6119 41.0884 45.3294 28.5472 38.1078 29.6051Z" fill="#3C3C3C"/>
<path d="M61.7508 42.0376H58.5829C58.2015 41.8031 58.536 40.4424 58.4095 40.2911L56.7881 41.5041C54.0046 43.2052 48.724 42.2574 48.2853 38.4727C47.5756 32.3507 54.3069 32.109 58.5247 33.3016C58.3812 32.3948 58.474 31.7377 57.8943 30.9702C56.3475 28.9224 52.5504 29.7256 50.5267 30.6197L49.5396 27.8293C53.0938 26.2847 59.6201 25.5328 61.3119 30.077C61.404 30.3244 61.7508 31.5619 61.7508 31.7299V42.0376ZM54.5854 34.9679C52.8723 35.1072 51.3551 35.8961 51.6241 37.8929C51.9993 40.6766 58.1014 40.306 58.5126 36.9581C58.5452 36.6929 58.5785 35.9222 58.5068 35.7087C58.3095 35.1211 55.2158 34.9167 54.5854 34.9679Z" fill="#3C3C3C"/>
<path d="M89.0519 25.7314L82.0268 31.505L89.0519 42.0375H85.02L79.3186 33.6641L78.3387 34.3504V42.0375H74.998V32.778L83.8105 25.7314H89.0519Z" fill="#3C3C3C"/>
<path d="M78.3393 21.0723V26.7212L68.6629 34.4083V42.0372H65.3223V26.8959H68.6629V29.9241C69.0367 29.8323 69.3828 29.5043 69.6877 29.2715C71.4932 27.8931 73.2514 26.4275 74.9987 24.9741V21.0723H78.3393Z" fill="#EE5921"/>
<path d="M0 21.1766V0H6.48385C9.25029 0 11.3059 0.425465 12.6507 1.2764C14.0147 2.12733 14.6967 3.41339 14.6967 5.13459C14.6967 6.39165 14.3509 7.43598 13.6593 8.26757C12.9677 9.07982 11.9975 9.62132 10.7488 9.89207V9.95009C12.3433 10.2015 13.544 10.772 14.3509 11.6616C15.1578 12.5512 15.5612 13.7406 15.5612 15.2297C15.5612 17.2217 14.8216 18.7108 13.3423 19.6971C11.863 20.6834 9.62492 21.1766 6.62794 21.1766H0ZM6.62794 18.3337C8.60671 18.3337 10.0476 18.0629 10.9505 17.5214C11.8727 16.9606 12.3337 16.0903 12.3337 14.9106C12.3337 13.7116 11.8727 12.8413 10.9505 12.2998C10.0284 11.739 8.5875 11.4586 6.62794 11.4586H1.58494V8.7027H6.62794C8.31854 8.7027 9.55768 8.46096 10.3453 7.97748C11.133 7.47465 11.5268 6.71075 11.5268 5.68577C11.5268 4.68012 11.1426 3.95489 10.3742 3.51009C9.60571 3.06528 8.35696 2.84288 6.62794 2.84288H3.16988V18.3337H6.62794Z" fill="#3C3C3C"/>
<path d="M18.8777 21.1766V6.09189H21.8747L21.9035 8.99279H21.9611C22.4414 8.31592 23.0177 7.7454 23.6901 7.28126C24.3818 6.79778 25.1502 6.43033 25.9955 6.17892C26.86 5.92751 27.7534 5.8018 28.6755 5.8018V8.55766C27.446 8.55766 26.3221 8.7994 25.3039 9.28288C24.3049 9.76637 23.5076 10.4142 22.9121 11.2265C22.3165 12.0387 22.0188 12.938 22.0188 13.9243V21.1766H18.8777Z" fill="#3C3C3C"/>
<path d="M47.0757 21.1766V6.09189H50.0438L50.0727 7.89045H50.1303C50.7259 7.19423 51.4463 6.67207 52.2916 6.32396C53.1369 5.97586 54.1167 5.8018 55.2309 5.8018C57.0752 5.8018 58.4296 6.29495 59.2941 7.28126C60.1779 8.26757 60.6197 9.80504 60.6197 11.8937V21.1766H57.5075V12.4739C57.5075 11.0814 57.2481 10.0565 56.7294 9.39892C56.2299 8.74138 55.4423 8.41261 54.3664 8.41261C53.5595 8.41261 52.8391 8.577 52.2051 8.90577C51.5712 9.23453 51.0717 9.67934 50.7066 10.2402C50.3608 10.801 50.1879 11.4489 50.1879 12.1838V21.1766H47.0757Z" fill="#3C3C3C"/>
<path d="M43.9073 21.1766H40.7395C40.358 20.9421 40.6925 19.5814 40.5661 19.4301L38.9446 20.6431C36.1612 22.3442 30.8806 21.3963 30.4419 17.6117C29.7322 11.4896 36.4634 11.248 40.6813 12.4405C40.5378 11.5337 40.6306 10.8766 40.0509 10.1091C38.5041 8.0614 34.707 8.86457 32.6832 9.75869L31.6961 6.96831C35.2503 5.42362 41.7767 4.67177 43.4685 9.216C43.5606 9.46339 43.9073 10.7009 43.9073 10.8688V21.1766ZM36.742 14.1069C35.0289 14.2462 33.5116 15.035 33.7807 17.0319C34.1558 19.8156 40.258 19.4449 40.6691 16.0971C40.7017 15.8318 40.7351 15.0611 40.6634 14.8476C40.4661 14.26 37.3724 14.0556 36.742 14.1069Z" fill="#3C3C3C"/>
<path d="M69.9384 21.4667C67.9404 21.4667 66.3747 20.7801 65.2412 19.407C64.1078 18.0146 63.541 16.0903 63.541 13.6342C63.541 11.1781 64.1078 9.26354 65.2412 7.89045C66.3747 6.49802 67.9404 5.8018 69.9384 5.8018C70.9566 5.8018 71.8788 5.98553 72.7049 6.35297C73.5502 6.70108 74.2418 7.21357 74.7797 7.89045H74.8373V0H78.338V21.1766H74.9814L74.9526 19.378H74.895C74.357 20.0356 73.6462 20.548 72.7625 20.9155C71.898 21.2829 70.9566 21.4667 69.9384 21.4667ZM70.63 18.8559C71.4561 18.8559 72.1765 18.6915 72.7913 18.3627C73.4253 18.0339 73.9248 17.5795 74.2898 16.9993C74.6548 16.4191 74.8373 15.7712 74.8373 15.0557V12.2128C74.8373 11.4779 74.6548 10.83 74.2898 10.2692C73.9248 9.68901 73.4253 9.23454 72.7913 8.90577C72.1765 8.577 71.4657 8.41261 70.6588 8.41261C69.3717 8.41261 68.3727 8.86709 67.6619 9.77604C66.951 10.6656 66.5956 11.9517 66.5956 13.6342C66.5956 15.2974 66.951 16.5835 67.6619 17.4924C68.3727 18.4014 69.3621 18.8559 70.63 18.8559Z" fill="#EE5921"/>
<path d="M22.7459 42.4668C22.0797 42.4668 21.3849 42.4186 20.6615 42.3221C19.9572 42.2449 19.2815 42.1291 18.6343 41.9747C17.9871 41.801 17.416 41.608 16.9211 41.3957L17.3494 38.848C18.187 39.1568 19.034 39.4077 19.8906 39.6007C20.7472 39.7744 21.5943 39.8613 22.4318 39.8613C23.5359 39.8613 24.3544 39.7069 24.8874 39.3981C25.4394 39.07 25.7154 38.5874 25.7154 37.9505C25.7154 37.5838 25.6202 37.2847 25.4299 37.0531C25.2395 36.8022 24.9064 36.5802 24.4305 36.3872C23.9547 36.1749 23.2979 35.9722 22.4604 35.7792C21.3183 35.4897 20.3189 35.152 19.4623 34.766C18.6248 34.38 17.9776 33.8878 17.5207 33.2895C17.0639 32.6912 16.8354 31.9385 16.8354 31.0313C16.8354 29.661 17.3494 28.6188 18.3773 27.9047C19.4243 27.1906 20.928 26.8335 22.8887 26.8335C23.8024 26.8335 24.7351 26.9107 25.6869 27.0651C26.6577 27.2195 27.5428 27.4415 28.3423 27.731L27.8854 30.2786C27.124 29.9891 26.3531 29.7768 25.5727 29.6417C24.8112 29.5066 24.0403 29.4391 23.2599 29.4391C22.1368 29.4391 21.2992 29.5838 20.7472 29.8733C20.2142 30.1435 19.9477 30.5585 19.9477 31.1182C19.9477 31.4463 20.0334 31.7262 20.2047 31.9578C20.3951 32.1894 20.7187 32.4017 21.1755 32.5947C21.6323 32.7877 22.27 32.9807 23.0886 33.1737C23.9261 33.3667 24.6875 33.5983 25.3728 33.8685C26.0771 34.1387 26.6862 34.4668 27.2002 34.8528C27.7141 35.2195 28.1139 35.6634 28.3994 36.1845C28.6849 36.7057 28.8277 37.3233 28.8277 38.0374C28.8277 38.9638 28.5802 39.7551 28.0853 40.4113C27.6094 41.0676 26.9146 41.579 26.001 41.9457C25.1063 42.2931 24.0213 42.4668 22.7459 42.4668Z" fill="#3C3C3C"/>
<path d="M118.488 19.0339C118.391 18.9766 117.86 17.4749 117.724 17.1856C116.516 14.61 114.821 12.1898 112.829 10.1865C112.565 9.92074 112.09 9.41826 111.816 9.21412C111.431 8.9278 111.382 9.08383 111.564 9.47028C111.904 10.1922 113.007 11.3699 113.512 12.1188C114.873 14.1329 116.666 17.4218 117.29 19.7622C117.331 19.9131 117.347 20.0544 117.332 20.2098L106.468 21.1897L117.332 22.2572C117.445 22.3676 116.626 24.5197 116.498 24.8367C115.025 28.4837 113.248 30.4763 111.076 33.569C111.019 33.6496 110.781 33.9368 110.849 34.0046C111.053 34.0212 111.191 33.8568 111.332 33.7405C112.107 33.1045 113.364 31.7594 114.047 30.9803C115.953 28.8093 117.289 26.1975 118.514 23.5878C118.581 23.4527 118.889 23.5515 118.914 23.6518C118.954 23.8167 118.761 25.1917 118.721 25.4927C117.955 31.2142 115.658 36.2875 112.324 40.8887C112.13 41.156 111.445 42.0918 111.259 42.2542C111.191 42.3136 110.806 42.5052 110.761 42.4598C111.054 41.5351 111.501 40.6649 111.813 39.747C112.405 38.0086 113.493 34.9541 110.349 36.2129C109.283 36.6398 108.263 37.5606 107.32 37.9414C107.19 37.9937 106.957 38.12 106.989 37.8743C107.829 36.0468 108.979 34.3681 109.784 32.5239C110.294 31.3578 110.858 29.802 110.935 28.5304C111.231 23.5811 105.22 22.0491 101.473 21.3653L101.473 21.1012C104.469 20.438 109.125 19.5296 110.514 16.3544C112.171 12.5643 108.618 8.15736 107.102 4.92448C107.04 4.79256 106.994 4.65055 106.992 4.50215C106.999 4.395 107.179 4.47408 107.251 4.50576C107.838 4.76344 108.533 5.34062 109.105 5.64859C110.996 6.66577 113.039 7.54 112.312 4.26038C111.985 2.78551 111.208 1.44098 110.761 0.0068433C110.926 -0.0317072 110.969 0.101509 111.067 0.184266C112.285 1.20458 114.033 3.89218 114.865 5.31617C117.246 9.39456 118.617 14.1033 119 18.8277C119.007 19.0669 118.64 19.1236 118.488 19.0339ZM110.717 34.0941V34.1831C110.774 34.1534 110.774 34.1238 110.717 34.0941Z" fill="#EE5921"/>
</svg>
